# xmcd CD database file generated by Grip 3.2.0
# 
# Track frame offsets:
#       150
#       17190
#       31060
#       49687
#       62882
#       78987
#       101332
#       112137
#       127465
#       138807
#       151855
#       171472
#       188007
#       204265
# 
# Disc length: 3319 seconds
# 
# Revision: 5
# Processed by: cddbd v1.5.2PL0 Copyright (c) Steve Scherf et al.
# Submitted via: Grip 3.2.0
# 
DISCID=bb0cf50e
DTITLE=Joint Venture - Extremliedermaching
DYEAR=1999
DGENRE=Other
TTITLE0=Mein Leben begann mit einem grossem Sieg
TTITLE1=Chronik meins Alkolismuss
TTITLE2=Das zwischen den Beinen
TTITLE3=Holland
TTITLE4=Mein Dispo gehoert mir
TTITLE5=Eduard der Haschischhund
TTITLE6=Moralische Reflektionen ueber den geklauten Bierkasten
TTITLE7=Lebenslehren von Lukas K. Talentscout
TTITLE8=Markt Marx undsoweiter
TTITLE9=Dieter hat man gern als Mieter
TTITLE10=Der Tag des Herrn II
TTITLE11=Troubadix
TTITLE12=Geschenktes Gras
TTITLE13=Die Wunderschlampe
EXTD=\n YEAR: 1999
EXTT0=
EXTT1=
EXTT2=
EXTT3=
EXTT4=
EXTT5=
EXTT6=
EXTT7=
EXTT8=
EXTT9=
EXTT10=
EXTT11=
EXTT12=
EXTT13=
PLAYORDER=
